<?xml version="1.0" encoding="UTF-8" standalone="no"?>
<svg width="28px" height="56px" viewBox="0 0 28 56" version="1.1" xmlns="http://www.w3.org/2000/svg" xmlns:xlink="http://www.w3.org/1999/xlink" xmlns:sketch="http://www.bohemiancoding.com/sketch/ns">
    <!-- Generator: Sketch 3.2.2 (9983) - http://www.bohemiancoding.com/sketch -->
    <title>Shape</title>
    <desc>Created with Sketch.</desc>
    <defs></defs>
    <g id="Webcite" stroke="none" stroke-width="1" fill="none" fill-rule="evenodd" sketch:type="MSPage">
        <g id="Desktop-HD" sketch:type="MSArtboardGroup" transform="translate(-1142.000000, -1078.000000)" fill="#E6B059">
            <g id="Group" sketch:type="MSLayerGroup" transform="translate(0.000000, 732.000000)">
                <g id="Gallery" transform="translate(270.000000, 230.000000)" sketch:type="MSShapeGroup">
                    <path d="M899.718,143.309 L873.721,116.307 C873.536,116.12 873.283,116 873,116 C872.447,116 872,116.447 872,117 C872,117.27 872.109,117.512 872.282,117.691 L897.611,144 L872.279,170.307 C872.109,170.489 872,170.731 872,171 C872,171.553 872.447,172 873,172 C873.283,172 873.536,171.881 873.718,171.691 L899.721,144.693 C899.891,144.512 900,144.27 900,144 C900,143.731 899.891,143.488 899.718,143.309 Z" id="Shape"></path>
                </g>
            </g>
        </g>
    </g>
</svg>