<svg xmlns="http://www.w3.org/2000/svg" xmlns:xlink="http://www.w3.org/1999/xlink" xmlns:sketch="http://www.bohemiancoding.com/sketch/ns" width="150px" height="104px" viewBox="0 0 150 104" version="1.1"><!-- Generator: Sketch 3.2.2 (9983) - http://www.bohemiancoding.com/sketch --><title>Group</title><desc>Created with Sketch.</desc><defs/><g id="Webcite" stroke="none" stroke-width="1" fill="none" fill-rule="evenodd" sketch:type="MSPage"><g id="Desktop-HD" sketch:type="MSArtboardGroup" transform="translate(-644.000000, -1775.000000)"><g id="Step-3" sketch:type="MSLayerGroup" transform="translate(0.000000, 1415.000000)"><g id="Group" sketch:type="MSShapeGroup"><path d="M680.7 442.4 C676.1 454.5 670.5 457.4 660.5 463.1 C696.7 467.5 721.5 446.4 726.8 416.2 C726.9 415.4 727 414.5 727.1 413.7 C727.3 413.1 727.4 412.4 727.5 411.8 C728.2 407.9 728.2 404.1 727.7 400.3 C725.6 384.2 713.1 370.7 696.1 367.8 C688.5 366.5 681 367.5 674.5 370.4 C662.9 375.3 654 385.7 651.7 399 C648.3 418.9 661.1 437.8 680.7 442.4 " id="Imported-Layers-4" fill-opacity="0.0799999982" fill="#000000"/><path d="M745.7 442.4 C741.1 454.5 735.5 457.4 725.5 463.1 C761.7 467.5 786.5 446.4 791.8 416.2 C791.9 415.4 792 414.5 792.1 413.7 C792.3 413.1 792.4 412.4 792.5 411.8 C793.2 407.9 793.2 404.1 792.7 400.3 C790.6 384.2 778.1 370.7 761.1 367.8 C753.5 366.5 746 367.5 739.5 370.4 C727.9 375.3 719 385.7 716.7 399 C713.3 418.9 726.1 437.8 745.7 442.4 " id="Imported-Layers-4" fill-opacity="0.0799999982" fill="#000000"/><path d="M673.5 435.3 C669 447.3 663.4 450.3 653.3 455.9 C689.6 460.4 714.4 439.3 719.6 409.1 C719.8 408.2 719.9 407.4 720 406.6 C720.1 405.9 720.3 405.3 720.4 404.7 C721 400.8 721.1 396.9 720.6 393.2 C718.4 377.1 705.9 363.6 688.9 360.7 C681.3 359.4 673.9 360.4 667.3 363.2 C655.7 368.1 646.8 378.6 644.6 391.8 C641.1 411.7 654 430.7 673.5 435.3 " id="Imported-Layers-3" fill="#FFFFFF"/><path d="M738.5 435.3 C734 447.3 728.4 450.3 718.3 455.9 C754.6 460.4 779.4 439.3 784.6 409.1 C784.8 408.2 784.9 407.4 785 406.6 C785.1 405.9 785.3 405.3 785.4 404.7 C786 400.8 786.1 396.9 785.6 393.2 C783.4 377.1 770.9 363.6 753.9 360.7 C746.3 359.4 738.9 360.4 732.3 363.2 C720.7 368.1 711.8 378.6 709.6 391.8 C706.1 411.7 719 430.7 738.5 435.3 " id="Imported-Layers-3" fill="#FFFFFF"/></g></g></g></g></svg>