<svg xmlns="http://www.w3.org/2000/svg" xmlns:xlink="http://www.w3.org/1999/xlink" xmlns:sketch="http://www.bohemiancoding.com/sketch/ns" width="192px" height="208px" viewBox="0 0 192 208" version="1.1"><!-- Generator: Sketch 3.2.2 (9983) - http://www.bohemiancoding.com/sketch --><title>Rectangle 30 + Article</title><desc>Created with Sketch.</desc><defs/><g id="Webcite" stroke="none" stroke-width="1" fill="none" fill-rule="evenodd" sketch:type="MSPage"><g id="Desktop-HD" sketch:type="MSArtboardGroup" transform="translate(-174.000000, -1521.000000)"><g id="Step-2" sketch:type="MSLayerGroup" transform="translate(0.000000, 1415.000000)"><g id="Rectangle-30-+-Article" transform="translate(174.000000, 106.000000)" sketch:type="MSShapeGroup"><path d="M6 8 L63 8 L63 28 L6 28 L6 8 Z M6 53 L63 53 L63 73 L6 73 L6 53 Z M6 143 L192 143 L192 163 L6 163 L6 143 Z M6 188 L192 188 L192 208 L6 208 L6 188 Z M85 7 L192 7 L192 118 L85 118 L85 7 Z M6 98 L63 98 L63 118 L6 118 L6 98 Z" id="Rectangle-30" fill-opacity="0.100000001" fill="#000000"/><g id="Article"><rect id="Rectangle-30" fill="#FFFFFF" x="0" y="1" width="57" height="20"/><rect id="Rectangle-30" fill="#FFFFFF" x="0" y="46" width="57" height="20"/><rect id="Rectangle-32" fill="#F9EA33" x="0" y="136" width="186" height="20"/><rect id="Rectangle-33" fill="#FFFFFF" x="0" y="181" width="186" height="20"/><rect id="Rectangle-35" fill="#FFFFFF" x="79" y="0" width="107" height="111"/><rect id="Rectangle-31" fill="#F9EA33" x="0" y="91" width="57" height="20"/></g></g></g></g></g></svg>