<?xml version="1.0" encoding="UTF-8" standalone="no"?>
<svg width="150px" height="104px" viewBox="0 0 150 104" version="1.1" xmlns="http://www.w3.org/2000/svg" xmlns:xlink="http://www.w3.org/1999/xlink" xmlns:sketch="http://www.bohemiancoding.com/sketch/ns">
    <!-- Generator: Sketch 3.2.2 (9983) - http://www.bohemiancoding.com/sketch -->
    <title>Group</title>
    <desc>Created with Sketch.</desc>
    <defs></defs>
    <g id="Webcite" stroke="none" stroke-width="1" fill="none" fill-rule="evenodd" sketch:type="MSPage">
        <g id="Desktop-HD" sketch:type="MSArtboardGroup" transform="translate(-644.000000, -1775.000000)">
            <g id="Step-3" sketch:type="MSLayerGroup" transform="translate(0.000000, 1415.000000)">
                <g id="Group" transform="translate(644.000000, 360.000000)" sketch:type="MSShapeGroup">
                    <path d="M36.6561802,82.4491978 C32.1459548,94.4869918 26.5000611,97.3983585 16.4932012,103.073165 C52.7047953,107.519538 77.5467276,86.4110577 82.7578226,56.1997321 C82.9027555,55.3657692 83.0260566,54.5339501 83.1428682,53.6999872 C83.2791484,53.0782668 83.4067759,52.445827 83.5170979,51.8048118 C84.187683,47.9094117 84.2395993,44.0504572 83.7377421,40.3287101 C81.5680749,24.2304385 69.0908661,10.6962277 52.0882897,7.81487506 C44.4955361,6.52855691 37.043389,7.54474825 30.4543499,10.3532095 C18.8813494,15.279808 9.98419963,25.7375746 7.70204719,38.9609251 C4.26692107,58.8817055 17.098891,77.8291718 36.6561802,82.4491978" id="Imported-Layers-4" fill-opacity="0.0799999982" fill="#000000"></path>
                    <path d="M101.65618,82.4491978 C97.1459548,94.4869918 91.5000611,97.3983585 81.4932012,103.073165 C117.704795,107.519538 142.546728,86.4110577 147.757823,56.1997321 C147.902755,55.3657692 148.026057,54.5339501 148.142868,53.6999872 C148.279148,53.0782668 148.406776,52.445827 148.517098,51.8048118 C149.187683,47.9094117 149.239599,44.0504572 148.737742,40.3287101 C146.568075,24.2304385 134.090866,10.6962277 117.08829,7.81487506 C109.495536,6.52855691 102.043389,7.54474825 95.4543499,10.3532095 C83.8813494,15.279808 74.9841996,25.7375746 72.7020472,38.9609251 C69.2669211,58.8817055 82.098891,77.8291718 101.65618,82.4491978" id="Imported-Layers-4" fill-opacity="0.0799999982" fill="#000000"></path>
                    <path d="M29.5099683,75.3029858 C24.9997429,87.3407798 19.3538492,90.2521466 9.34698929,95.9269535 C45.5585834,100.373327 70.4005157,79.2648457 75.6116107,49.0535202 C75.7565436,48.2195573 75.8798447,47.3877382 75.9966563,46.5537753 C76.1329365,45.9320548 76.260564,45.2996151 76.370886,44.6585999 C77.0414711,40.7631998 77.0933874,36.9042453 76.5915301,33.1824981 C74.4218629,17.0842265 61.9446542,3.55001578 44.9420777,0.668663134 C37.3493241,-0.617655012 29.8971771,0.398536324 23.3081379,3.20699761 C11.7351374,8.13359611 2.83798771,18.5913626 0.555835271,31.8147132 C-2.87929086,51.7354935 9.95267904,70.6829598 29.5099683,75.3029858" id="Imported-Layers-3" fill="#FFFFFF"></path>
                    <path d="M94.5099683,75.3029858 C89.9997429,87.3407798 84.3538492,90.2521466 74.3469893,95.9269535 C110.558583,100.373327 135.400516,79.2648457 140.611611,49.0535202 C140.756544,48.2195573 140.879845,47.3877382 140.996656,46.5537753 C141.132936,45.9320548 141.260564,45.2996151 141.370886,44.6585999 C142.041471,40.7631998 142.093387,36.9042453 141.59153,33.1824981 C139.421863,17.0842265 126.944654,3.55001578 109.942078,0.668663134 C102.349324,-0.617655012 94.8971771,0.398536324 88.3081379,3.20699761 C76.7351374,8.13359611 67.8379877,18.5913626 65.5558353,31.8147132 C62.1207091,51.7354935 74.952679,70.6829598 94.5099683,75.3029858" id="Imported-Layers-3" fill="#FFFFFF"></path>
                </g>
            </g>
        </g>
    </g>
</svg>