<svg xmlns="http://www.w3.org/2000/svg" xmlns:xlink="http://www.w3.org/1999/xlink" xmlns:sketch="http://www.bohemiancoding.com/sketch/ns" width="150px" height="54px" viewBox="0 0 150 54" version="1.1"><!-- Generator: Sketch Beta 3.3 (11970) - http://www.bohemiancoding.com/sketch --><title>icon_appstore</title><desc>Created with Sketch Beta.</desc><defs><path d="M7.99838737 0 C3.581 0 0 3.6 0 8 L0 46 C0 50.4 3.6 54 8 54 L142.001613 54 C146.419 54 150 50.4 150 46 L150 8 C150 3.6 146.4 0 142 0 L7.99838737 0 Z M32.8375863 25.8 C32.8049041 21.9 35.8 20 35.9 19.9 C34.2463015 17.3 31.6 16.9 30.7 16.9 C28.4626802 16.7 26.3 18.3 25.2 18.3 C24.0314255 18.3 22.3 16.9 20.4 17 C18.0066321 17 15.8 18.5 14.5 20.8 C11.9592993 25.5 13.9 32.4 16.3 36.2 C17.5344308 38.1 19 40.2 20.8 40.1 C22.6677891 40 23.4 38.8 25.6 38.8 C27.7515607 38.8 28.4 40.1 30.3 40 C32.2684653 40 33.5 38.2 34.7 36.3 C36.1012978 34.2 36.7 32 36.7 31.9 C36.6467523 31.9 32.9 30.4 32.8 25.8 Z M29.2312752 14.4 C30.216249 13.1 30.9 11.3 30.7 9.5 C29.2774811 9.6 27.5 10.6 26.5 11.8 C25.5595998 13 24.7 14.8 25 16.6 C26.5592242 16.7 28.2 15.7 29.2 14.4 Z M53.8206817 18.2 L52.5618538 18.2 L51.8732737 15.9 L49.4784578 15.9 L48.821433 18.2 L47.5964142 18.2 L49.9698177 10.3 L51.4348816 10.3 L53.8206817 18.2 Z M51.6659109 14.9 L51.0426952 12.8 C50.9773308 12.6 50.9 12.1 50.7 11.4 L50.648255 11.4 C50.5716209 11.7 50.5 12.2 50.3 12.8 L49.6858207 14.9 L51.6659109 14.9 Z M59.7553173 12.5 L57.742545 18.2 L56.5941603 18.2 L54.6467523 12.5 L55.915723 12.5 L56.8240626 15.5 C56.9773308 16 57.1 16.5 57.2 16.9 L57.2387884 16.9 C57.3266922 16.5 57.5 16 57.6 15.5 L58.5179018 12.5 L59.7553173 12.5 Z M64.0400656 18.2 L63.9521618 17.5 L63.9194796 17.5 C63.5588485 18 63 18.3 62.4 18.3 C61.4153474 18.3 60.7 17.6 60.7 16.6 C60.7369101 15.2 61.9 14.5 63.8 14.5 L63.8428455 14.4 C63.8428455 13.7 63.5 13.3 62.7 13.3 C62.2132437 13.3 61.8 13.4 61.3 13.7 L61.1099379 12.9 C61.6024248 12.5 62.2 12.4 62.9 12.4 C64.3251896 12.4 65 13.2 65 14.7 L65.0261663 16.8 C65.0261663 17.4 65 17.8 65.1 18.2 L64.0400656 18.2 Z M63.8755277 15.3 C62.5626051 15.3 61.9 15.7 61.9 16.5 C61.9067073 17.1 62.2 17.4 62.7 17.4 C63.3176764 17.4 63.9 16.9 63.9 16.2 L63.8755277 15.3 Z M67.6565194 11.6 C67.2632061 11.6 67 11.2 67 10.8 C66.9566697 10.4 67.3 10.1 67.7 10.1 C68.0836419 10.1 68.4 10.4 68.4 10.8 C68.4003211 11.3 68.1 11.6 67.7 11.6 Z M67.0885254 12.5 L68.2695923 12.5 L68.2695923 18.2 L67.0885254 18.2 L67.0885254 12.5 Z M70.3680145 9.9 L71.5490814 9.9 L71.5490814 18.2 L70.3680145 18.2 L70.3680145 9.9 Z M76.5686156 18.2 L76.4795848 17.5 L76.4480296 17.5 C76.0873985 18 75.6 18.3 74.9 18.3 C73.9438973 18.3 73.3 17.6 73.3 16.6 C73.2654601 15.2 74.4 14.5 76.4 14.5 L76.3713955 14.4 C76.3713955 13.7 76 13.3 75.3 13.3 C74.7417937 13.3 74.3 13.4 73.9 13.7 L73.6373609 12.9 C74.1298477 12.5 74.7 12.4 75.5 12.4 C76.8526126 12.4 77.6 13.2 77.6 14.7 L77.5547163 16.8 C77.5547163 17.4 77.6 17.8 77.6 18.2 L76.5686156 18.2 Z M76.4040777 15.3 C75.091155 15.3 74.4 15.7 74.4 16.5 C74.4352572 17.1 74.8 17.4 75.2 17.4 C75.8462264 17.4 76.4 16.9 76.4 16.2 L76.4040777 15.3 Z M82.3387133 18.3 C81.5847689 18.3 81 17.9 80.7 17.3 L80.6437471 17.3 L80.5761287 18.2 L79.5708695 18.2 C79.6024248 17.7 79.6 17.2 79.6 16.6 L79.6136945 9.9 L80.7970153 9.9 L80.7970153 13.3 L80.8184278 13.3 C81.1689161 12.7 81.7 12.4 82.5 12.4 C83.7936344 12.4 84.7 13.5 84.7 15.2 C84.6907042 17 83.7 18.3 82.3 18.3 Z M82.0986682 13.4 C81.4191039 13.4 80.8 14 80.8 14.9 L80.7970153 15.9 C80.7970153 16.6 81.4 17.3 82.1 17.3 C82.9619289 17.3 83.5 16.5 83.5 15.3 C83.4882249 14.2 82.9 13.4 82.1 13.4 Z M86.4386381 9.9 L87.618578 9.9 L87.618578 18.2 L86.4386381 18.2 L86.4386381 9.9 Z M94.0468275 15.6 L90.5013729 15.6 C90.5250393 16.7 91.2 17.3 92.2 17.3 C92.7000957 17.3 93.2 17.2 93.6 17 L93.7910048 17.9 C93.2883752 18.1 92.7 18.3 92 18.3 C90.3458508 18.3 89.4 17.1 89.4 15.4 C89.362004 13.7 90.4 12.4 91.9 12.4 C93.2320266 12.4 94.1 13.4 94.1 15.1 C94.0907794 15.3 94.1 15.5 94 15.6 Z M92.9649341 14.7 C92.9649341 13.9 92.5 13.2 91.8 13.2 C91.1144458 13.2 90.6 13.9 90.5 14.7 L92.9649341 14.7 Z M101.205355 18.3 C99.6523872 18.3 98.6 17 98.6 15.4 C98.646001 13.6 99.7 12.4 101.3 12.4 C102.823687 12.4 103.9 13.6 103.9 15.3 C103.85374 17 102.8 18.3 101.2 18.3 Z M101.250434 13.3 C100.397316 13.3 99.9 14.2 99.9 15.3 C99.8507343 16.5 100.4 17.3 101.2 17.3 C102.069743 17.3 102.6 16.4 102.6 15.3 C102.627594 14.2 102.1 13.3 101.3 13.3 Z M110.203101 18.2 L109.024288 18.2 L109.024288 14.9 C109.024288 13.9 108.7 13.4 108 13.4 C107.251561 13.4 106.8 14 106.8 14.8 L106.769217 18.2 L105.590404 18.2 L105.590404 14.1 C105.590404 13.6 105.6 13.1 105.5 12.5 L106.584393 12.5 L106.639615 13.4 L106.673424 13.4 C106.987849 12.8 107.6 12.4 108.4 12.4 C109.470569 12.4 110.2 13.3 110.2 14.8 L110.203101 18.2 Z M117.930749 13.4 L116.63135 13.4 L116.63135 16.2 C116.63135 16.9 116.9 17.2 117.3 17.2 C117.526166 17.2 117.7 17.2 117.8 17.2 L117.876655 18.1 C117.646752 18.2 117.3 18.3 117 18.3 C116.027293 18.3 115.5 17.7 115.5 16.3 L115.472823 13.4 L114.698593 13.4 L114.698593 12.5 L115.472823 12.5 L115.472823 11.5 L116.63135 11.1 L116.63135 12.5 L117.930749 12.5 L117.930749 13.4 Z M124.185445 18.2 L123.003251 18.2 L123.003251 14.9 C123.003251 13.9 122.6 13.4 121.9 13.4 C121.319555 13.4 120.8 13.8 120.8 14.7 L120.751561 18.2 L119.569367 18.2 L119.569367 9.9 L120.751561 9.9 L120.751561 13.3 L120.7741 13.3 C121.144874 12.7 121.7 12.4 122.4 12.4 C123.496865 12.4 124.2 13.3 124.2 14.8 L124.185445 18.2 Z M130.220381 15.6 L126.676054 15.6 C126.698593 16.7 127.4 17.3 128.3 17.3 C128.875903 17.3 129.4 17.2 129.8 17 L129.964558 17.9 C129.463056 18.1 128.9 18.3 128.2 18.3 C126.519404 18.3 125.5 17.1 125.5 15.4 C125.535558 13.7 126.5 12.4 128 12.4 C129.40558 12.4 130.3 13.4 130.3 15.1 C130.264333 15.3 130.3 15.5 130.2 15.6 Z M129.137361 14.7 C129.137361 13.9 128.7 13.2 128 13.2 C127.289126 13.2 126.8 13.9 126.7 14.7 L129.137361 14.7 Z M59.363131 39.8 L56.8037771 39.8 L55.4018237 35.1 L50.5287959 35.1 L49.1933338 39.8 L46.7015983 39.8 L51.5306742 23.9 L54.5126426 23.9 L59.363131 39.8 Z M54.9792091 33.2 L53.7113654 29 C53.5772557 28.6 53.3 27.6 53 26 L52.9100882 26 C52.7613278 26.7 52.5 27.7 52.2 29 L50.9514105 33.2 L54.9792091 33.2 Z M71.7575713 33.9 C71.7575713 35.9 71.3 37.4 70.3 38.6 C69.3638823 39.6 68.3 40.1 66.9 40.1 C65.4927328 40.1 64.5 39.5 63.8 38.4 L63.8372106 44.5 L61.4345059 44.5 L61.4345059 32.1 C61.4345059 30.9 61.4 29.6 61.3 28.3 L63.458548 28.3 L63.5926577 30.1 L63.6377366 30.1 C64.4390138 28.8 65.7 28.1 67.3 28.1 C68.5626051 28.1 69.6 28.6 70.5 29.7 C71.3304488 30.8 71.8 32.2 71.8 33.9 Z M69.3097876 34 C69.3097876 32.9 69.1 32 68.6 31.2 C68.078007 30.5 67.4 30.1 66.5 30.1 C65.9130934 30.1 65.4 30.3 64.9 30.7 C64.4108395 31.2 64.1 31.7 63.9 32.4 C63.8732737 32.7 63.8 33 63.8 33.2 L63.8360837 35.1 C63.8360837 35.9 64.1 36.6 64.6 37.2 C65.0419439 37.8 65.7 38.1 66.4 38.1 C67.3443481 38.1 68 37.7 68.6 36.9 C69.0573459 36.2 69.3 35.2 69.3 34 Z M84.1959635 33.9 C84.1959635 35.9 83.7 37.4 82.7 38.6 C81.8011475 39.6 80.7 40.1 79.4 40.1 C77.931125 40.1 76.9 39.5 76.3 38.4 L76.2744758 44.5 L73.8717711 44.5 L73.8717711 32.1 C73.8717711 30.9 73.8 29.6 73.8 28.3 L75.8958132 28.3 L76.0299229 30.1 L76.0750018 30.1 C76.875152 28.8 78.1 28.1 79.7 28.1 C80.9987433 28.1 82.1 28.6 82.9 29.7 C83.767714 30.8 84.2 32.2 84.2 33.9 Z M81.7470529 34 C81.7470529 32.9 81.5 32 81 31.2 C80.5152722 30.5 79.8 30.1 78.9 30.1 C78.3514856 30.1 77.8 30.3 77.3 30.7 C76.8481047 31.2 76.5 31.7 76.4 32.4 C76.3116659 32.7 76.3 33 76.3 33.2 L76.2722219 35.1 C76.2722219 35.9 76.5 36.6 77 37.2 C77.4769552 37.8 78.1 38.1 78.9 38.1 C79.7827403 38.1 80.5 37.7 81 36.9 C81.4946111 36.2 81.7 35.2 81.7 34 Z M98.1028004 35.3 C98.1028004 36.7 97.7 37.8 96.8 38.6 C95.7936344 39.6 94.4 40 92.7 40 C91.0704939 40 89.8 39.7 88.8 39.1 L89.3563692 36.9 C90.4100882 37.6 91.6 37.9 92.8 37.9 C93.7335292 37.9 94.4 37.7 94.9 37.3 C95.4454 36.8 95.7 36.3 95.7 35.5 C95.6989687 34.9 95.5 34.3 95.1 33.9 C94.6587734 33.5 94 33 93 32.7 C90.3807869 31.6 89.1 30.1 89.1 28.1 C89.0667373 26.8 89.5 25.7 90.5 24.9 C91.3826652 24 92.6 23.6 94.1 23.6 C95.5040025 23.6 96.6 23.9 97.5 24.4 L96.9408921 26.5 C96.091155 26 95.1 25.7 94.1 25.7 C93.2117411 25.7 92.5 26 92.1 26.4 C91.6711701 26.8 91.5 27.3 91.5 27.8 C91.4671881 28.5 91.7 29 92.2 29.4 C92.5580972 29.8 93.3 30.2 94.3 30.6 C95.6302234 31.2 96.6 31.8 97.2 32.6 C97.7985179 33.3 98.1 34.2 98.1 35.3 Z M106.067113 30.2 L103.418728 30.2 L103.418728 35.8 C103.418728 37.2 103.9 37.9 104.8 37.9 C105.250058 37.9 105.6 37.9 105.9 37.8 L105.954416 39.8 C105.481087 39.9 104.9 40 104.1 40 C103.136985 40 102.4 39.7 101.9 39.1 C101.325941 38.5 101.1 37.5 101.1 36 L101.058848 30.2 L99.4822144 30.2 L99.4822144 28.3 L101.058848 28.3 L101.058848 26.2 L103.418728 25.4 L103.418728 28.3 L106.067113 28.3 L106.067113 30.2 Z M117.992733 34 C117.992733 35.7 117.5 37.2 116.6 38.3 C115.575377 39.5 114.3 40.1 112.6 40.1 C111.019029 40.1 109.8 39.5 108.8 38.4 C107.871395 37.3 107.4 35.9 107.4 34.2 C107.400321 32.4 107.9 30.9 108.9 29.8 C109.828946 28.6 111.1 28.1 112.8 28.1 C114.372898 28.1 115.6 28.6 116.6 29.8 C117.534055 30.8 118 32.2 118 34 Z M115.502124 34 C115.502124 33 115.3 32.1 114.9 31.3 C114.354867 30.4 113.6 29.9 112.7 29.9 C111.738037 29.9 111 30.4 110.5 31.3 C110.064483 32.1 109.9 33 109.9 34.1 C109.851486 35.1 110.1 36 110.5 36.8 C111.015648 37.7 111.7 38.2 112.7 38.2 C113.597541 38.2 114.3 37.7 114.8 36.8 C115.280111 36 115.5 35.1 115.5 34 Z M125.806031 30.6 C125.56824 30.5 125.3 30.5 125 30.5 C124.203477 30.5 123.5 30.8 123.1 31.5 C122.689953 32.1 122.5 32.9 122.5 33.8 L122.490479 39.8 L120.087774 39.8 L120.087774 31.9 C120.087774 30.6 120.1 29.4 120 28.3 L122.110689 28.3 L122.198593 30.5 L122.265084 30.5 C122.51978 29.8 122.9 29.1 123.5 28.7 C124.002876 28.3 124.6 28.1 125.2 28.1 C125.425114 28.1 125.6 28.1 125.8 28.1 L125.806031 30.6 Z M136.551711 33.5 C136.551711 34 136.5 34.4 136.5 34.7 L129.25682 34.7 C129.28274 35.8 129.6 36.7 130.3 37.3 C130.908961 37.8 131.7 38.1 132.7 38.1 C133.726392 38.1 134.7 37.9 135.6 37.5 L135.952162 39.3 C134.928871 39.8 133.7 40 132.3 40 C130.649758 40 129.3 39.5 128.4 38.5 C127.420982 37.4 126.9 36 126.9 34.2 C126.940892 32.5 127.4 31.1 128.3 29.9 C129.210614 28.7 130.5 28.1 132.1 28.1 C133.617075 28.1 134.8 28.7 135.6 29.9 C136.232778 30.9 136.6 32.1 136.6 33.5 Z M134.260577 32.9 C134.277481 32.1 134.1 31.4 133.8 30.9 C133.378157 30.2 132.7 29.8 131.9 29.8 C131.093785 29.8 130.5 30.2 130 30.9 C129.567864 31.4 129.3 32.1 129.3 32.9 L134.260577 32.9 Z" id="path-1"/></defs><g id="Webcite" stroke="none" stroke-width="1" fill="none" fill-rule="evenodd" sketch:type="MSPage"><g id="Desktop-HD" sketch:type="MSArtboardGroup" transform="translate(-645.000000, -256.000000)"><g id="Header" sketch:type="MSLayerGroup"><g id="icon_appstore" transform="translate(645.000000, 256.000000)"><g id="background"><use fill="none" sketch:type="MSShapeGroup" xlink:href="#path-1"/><use fill="none" xlink:href="#path-1"/><use fill="#FFFFFF" fill-rule="evenodd" xlink:href="#path-1"/></g><g id="icon" transform="translate(12.303995, 9.504000)"/><g id="App-Store" transform="translate(45.716317, 22.652000)"/><g id="Available-on-the" transform="translate(46.630332, 8.936000)"/></g></g></g></g></svg>