<?xml version="1.0" encoding="UTF-8" standalone="no"?>
<svg width="132px" height="56px" viewBox="0 0 132 56" version="1.1" xmlns="http://www.w3.org/2000/svg" xmlns:xlink="http://www.w3.org/1999/xlink" xmlns:sketch="http://www.bohemiancoding.com/sketch/ns">
    <!-- Generator: Sketch 3.2.2 (9983) - http://www.bohemiancoding.com/sketch -->
    <title>Fill 8 + Icon Shape + Imported Layers + Imported Layers 2 + Fill 9 + Fill 8</title>
    <desc>Created with Sketch.</desc>
    <defs>
        <path id="path-1" d="M19.5108526,0 L36.4516283,0 C42.069795,0 44.8781789,0 47.9024846,0.956025716 C51.204271,2.15781999 53.8046609,4.75820994 55.0064552,8.05999631 C55.9624809,11.0838357 55.9624809,13.8931522 55.9624809,19.5108526 L55.9624809,36.4516283 C55.9624809,42.069795 55.9624809,44.8781789 55.0064552,47.9024846 C53.8046609,51.204271 51.204271,53.8046609 47.9024846,55.0059889 C44.8781789,55.9624809 42.069795,55.9624809 36.4516283,55.9624809 L19.5108526,55.9624809 C13.8926859,55.9624809 11.0838357,55.9624809 8.05999631,55.0059889 C4.75820994,53.8046609 2.15781999,51.204271 0.956025716,47.9024846 C0,44.8781789 0,42.069795 0,36.4516283 L0,19.5108526 C0,13.8931522 0,11.0838357 0.956025716,8.05999631 C2.15781999,4.75820994 4.75820994,2.15781999 8.05999631,0.956025716 C11.0838357,0 13.8926859,0 19.5108526,0 L19.5108526,0"></path>
    </defs>
    <g id="Webcite" stroke="none" stroke-width="1" fill="none" fill-rule="evenodd" sketch:type="MSPage">
        <g id="Desktop-HD" sketch:type="MSArtboardGroup" transform="translate(-300.000000, -30.000000)">
            <g id="Header" sketch:type="MSLayerGroup">
                <g id="Fill-8-+-Icon-Shape-+-Imported-Layers-+-Imported-Layers-2-+-Fill-9-+-Fill-8" transform="translate(300.000000, 30.000000)">
                    <g id="Fill-8-+-Icon-Shape-+-Imported-Layers-+-Imported-Layers-2">
                        <g id="Group-3">
                            <mask id="mask-2" sketch:name="Icon Shape" fill="white">
                                <use xlink:href="#path-1"></use>
                            </mask>
                            <g id="Icon-Shape">
                                <use fill="none" sketch:type="MSShapeGroup" xlink:href="#path-1"></use>
                                <use fill="#FF6465" fill-rule="evenodd" xlink:href="#path-1"></use>
                                <use fill="none" xlink:href="#path-1"></use>
                            </g>
                            <g id="Imported-Layers-+-Imported-Layers-2-+-Imported-Layers-+-Imported-Layers-2" mask="url(#mask-2)">
                                <g transform="translate(8.189631, 16.379263)" id="Imported-Layers-+-Imported-Layers-2">
                                    <g transform="translate(0.551594, 0.358017)">
                                        <path d="M8.45702638,18.4706793 C7.41646255,21.171312 6.11388624,21.8244659 3.80518202,23.0975869 C12.159637,24.0951135 17.8909727,19.3595073 19.0932357,12.581713 C19.1266735,12.3946167 19.1551206,12.2080013 19.1820704,12.0209049 C19.2135119,11.8814243 19.2429571,11.7395389 19.2684098,11.5957296 C19.4231219,10.7218116 19.4350996,9.8560701 19.319315,9.02111049 C18.8187464,5.40952538 15.9401027,2.37317743 12.0174016,1.72675709 C10.2656611,1.43817658 8.54636016,1.66615518 7.02618873,2.29622263 C4.35615682,3.40148599 2.30347623,5.74764555 1.77695592,8.71425321 C0.98443056,13.1834034 3.94492201,17.4341943 8.45702638,18.4706793" id="Imported-Layers" fill-opacity="0.200000003" fill="#000000" sketch:type="MSShapeGroup"></path>
                                        <path d="M2.15646406,21.4943618 C10.510919,22.4918884 16.2422548,17.7562823 17.4445177,10.978488 C17.4779555,10.7913916 17.5064026,10.6047762 17.5333524,10.4176798 C17.5647939,10.2781993 17.5942392,10.1363138 17.6196918,9.99250455 C17.7744039,9.11858657 17.7863816,8.25284504 17.6705971,7.41788542 C17.1700285,3.80630032 14.2913847,0.769952369 10.3686837,0.123532023 C8.61694311,-0.165048489 6.8976422,0.0629301152 5.37747076,0.692997566 C2.70743886,1.79826093 0.654758263,4.14442049 0.128237954,7.11102815 C-0.664287403,11.5801783 2.29620404,15.8309693 6.80830842,16.8674543 C5.76774458,19.5680869 4.46516827,20.2212408 2.15646406,21.4943618 Z" id="Imported-Layers-2" fill="#FFFFFF" sketch:type="MSShapeGroup"></path>
                                    </g>
                                    <g transform="translate(29.865687, 12.358017) scale(-1, 1) translate(-29.865687, -12.358017) translate(19.465687, 0.358017)">
                                        <path d="M8.45702638,18.4706793 C7.41646255,21.171312 6.11388624,21.8244659 3.80518202,23.0975869 C12.159637,24.0951135 17.8909727,19.3595073 19.0932357,12.581713 C19.1266735,12.3946167 19.1551206,12.2080013 19.1820704,12.0209049 C19.2135119,11.8814243 19.2429571,11.7395389 19.2684098,11.5957296 C19.4231219,10.7218116 19.4350996,9.8560701 19.319315,9.02111049 C18.8187464,5.40952538 15.9401027,2.37317743 12.0174016,1.72675709 C10.2656611,1.43817658 8.54636016,1.66615518 7.02618873,2.29622263 C4.35615682,3.40148599 2.30347623,5.74764555 1.77695592,8.71425321 C0.98443056,13.1834034 3.94492201,17.4341943 8.45702638,18.4706793" id="Imported-Layers" fill-opacity="0.2" fill="#000000" sketch:type="MSShapeGroup"></path>
                                        <path d="M2.15646406,21.4943618 C10.510919,22.4918884 16.2422548,17.7562823 17.4445177,10.978488 C17.4779555,10.7913916 17.5064026,10.6047762 17.5333524,10.4176798 C17.5647939,10.2781993 17.5942392,10.1363138 17.6196918,9.99250455 C17.7744039,9.11858657 17.7863816,8.25284504 17.6705971,7.41788542 C17.1700285,3.80630032 14.2913847,0.769952369 10.3686837,0.123532023 C8.61694311,-0.165048489 6.8976422,0.0629301152 5.37747076,0.692997566 C2.70743886,1.79826093 0.654758263,4.14442049 0.128237954,7.11102815 C-0.664287403,11.5801783 2.29620404,15.8309693 6.80830842,16.8674543 C5.76774458,19.5680869 4.46516827,20.2212408 2.15646406,21.4943618 Z" id="Imported-Layers-2" fill="#FFFFFF" sketch:type="MSShapeGroup"></path>
                                    </g>
                                </g>
                            </g>
                        </g>
                    </g>
                    <g id="Fill-9-+-Fill-8" transform="translate(66.000000, 4.000000)" sketch:type="MSShapeGroup">
                        <path d="M64.831708,31.8363013 C64.5401766,31.8363013 64.3321792,31.944045 64.2074765,32.1595324 C64.0825345,32.3747722 63.9575925,32.7837029 63.8326505,33.3868201 C63.6663004,34.2916196 63.4477716,35.2281231 63.1773032,36.1973212 C62.9065954,37.1662716 62.5217165,38.0383765 62.0221878,38.8136359 C61.5228984,39.5888953 60.887896,40.2244594 60.1181382,40.7198328 C59.3481411,41.2149585 58.3596151,41.4626453 57.1525602,41.4626453 C56.278684,41.4626453 55.5398027,41.2578083 54.9361556,40.8488776 C53.7140214,40.0201179 52.8226725,38.7333854 52.4818345,37.2594018 C52.280539,36.3897738 52.3454036,35.5013215 52.3454036,34.6143554 C52.3454036,34.7443909 53.7180904,34.8622898 53.8456653,34.8667482 C55.0381197,34.9083595 56.1968254,34.5484707 57.1525602,33.8066491 C58.068323,33.0960359 58.8383202,32.2132804 59.4625516,31.1581351 C60.0870224,30.102742 60.5654882,28.9614016 60.8984276,27.734114 C61.3273473,26.1538728 61.5497058,24.4213042 61.2622434,22.7935072 C60.5863118,18.9617938 55.9768604,16.2592841 52.5036156,17.988385 C50.8606997,18.8064942 49.9205229,20.4984421 49.2151509,22.1633922 C48.3829221,24.1285385 47.9867936,26.250966 47.600718,28.347634 C47.4003799,29.4357217 47.2615554,30.4680799 47.1816117,31.4471855 C47.1502565,31.577964 47.1198587,31.717907 47.0906577,31.8685005 C46.8826603,32.9454424 46.6330156,34.0005877 46.3414842,35.0341844 C46.0501922,36.067781 45.7172528,36.9941293 45.342666,37.8122385 C44.9680793,38.6305954 44.5520846,39.2765624 44.0939638,39.750387 C43.6360823,40.2244594 43.1365536,40.4612479 42.5958562,40.4612479 C42.2210301,40.4612479 41.8986222,40.2673092 41.6281538,39.8796795 C41.3574461,39.4920498 41.1389172,38.9860258 40.9723278,38.36136 C40.8059778,37.7369418 40.6812751,37.0369791 40.5979804,36.2617197 C40.5146858,35.4864603 40.4730384,34.6896522 40.4730384,33.8712953 C40.4730384,31.717907 40.4936227,29.6613643 40.5355094,27.701667 C40.5771568,25.7419698 40.6290963,24.0084105 40.6915673,22.5009892 C40.7296243,21.5575505 40.7408739,20.6131211 40.7908986,19.6704255 C40.8157913,19.1993253 40.850258,18.7284729 40.9024369,18.2598496 C41.0659147,17.622304 41.551561,17.2361605 42.2167217,16.9916937 C43.5604469,16.4980541 45.5834547,16.8373849 47.2325938,16.8373849 C48.2498421,16.8373849 48.3719119,16.0440443 48.3496521,15.475108 C48.327153,14.9064193 47.5202955,14.5029376 47.2510239,14.3842957 C46.6768171,14.1311599 46.0442083,14.045708 45.425482,14.0135087 C44.7074244,13.9758603 43.9891274,14.0187101 43.2708304,14.0296083 C42.8438254,14.0360482 42.1927865,14.0073165 41.7720047,13.9179016 C41.4783191,13.8554846 41.385929,13.7517038 41.2590722,13.4705794 C41.1463371,13.2204158 41.1872664,12.9395391 41.186309,12.6730282 C41.1855909,12.4082511 41.1829581,12.1509046 41.2044998,11.8856322 C41.3976573,9.523444 42.0515685,5.50051646 41.8720541,4.80402143 C41.6925396,4.10727872 40.5776355,3.78082763 39.4483701,3.47196231 C38.3193442,3.16309698 37.2570976,2.87677114 36.789642,3.05485789 C36.3221865,3.23269694 36.282454,4.05798906 36.2424821,4.7562179 C36.2025102,5.45419905 36.1565545,5.79130066 36.1216091,6.77238772 C36.0900145,7.6578677 36.0658399,8.54334769 36.0442982,9.42907537 C36.0165333,10.5771033 36.0220384,11.7335525 35.8844107,12.8748929 C35.8219397,13.3915674 35.7072898,13.6499046 35.5409398,13.6504 C35.2721469,13.6895345 34.9954553,13.6947359 34.7178064,13.6825992 C33.2106034,13.6382633 31.5351355,13.3905766 30.8170779,14.8766969 C30.5777253,15.619757 31.0564304,16.1151304 31.5351355,16.3628171 C33.6893085,16.8581905 36.0167726,16.2451659 35.6835939,20.1440024 C35.6675573,20.4853147 35.6548716,20.8283608 35.6438614,21.1719023 C35.6108307,22.2017836 35.5928793,23.2333988 35.5569764,24.2177058 C35.4954628,25.9059384 35.4444807,27.5946664 35.4047482,29.283642 C35.3674092,30.8651217 35.2766946,32.4545273 35.0268105,34.0206504 C34.9760678,34.3381847 34.908331,34.6527469 34.8185738,34.9606214 C34.33939,36.6025366 33.2352567,38.2370212 32.0593176,39.4259174 C31.3936782,40.0986345 30.6476163,40.8590327 29.7536345,41.1862269 C28.4015319,41.6808572 27.3644173,40.8067708 26.9936602,39.5022049 C26.5240505,37.8488962 26.5898725,36.1272258 26.5824526,34.4246274 C26.5781442,33.4314037 26.5290769,32.4193558 26.5822132,31.4276182 C26.6238606,30.6521111 26.6657472,30.0170424 26.7071552,29.521669 C26.7488026,29.0265432 26.7904499,28.6064666 26.8320973,28.2619344 C26.8737446,27.9174021 26.9151526,27.6050692 26.9567999,27.3249355 C26.9984473,27.0452972 27.0400946,26.7329643 27.081742,26.3881844 C27.157138,25.9980778 27.214822,25.4586162 27.3220519,25.0578591 C27.4295212,24.657102 27.7222494,24.4904088 27.808895,24.0837073 C28.1573923,22.4499657 25.8363907,21.9885254 24.7526023,21.848087 C24.2559458,21.7836885 23.7530661,21.7688273 23.2537767,21.8047418 C22.7894327,21.8381795 22.2592668,21.8738464 21.8375276,22.0923061 C21.3928106,22.3224071 21.6618429,22.9210658 21.8143104,23.3022557 C22.2513682,24.3955448 22.0606042,25.2770618 22.0874117,26.4285573 C22.1173308,27.7068684 22.0874117,28.9898856 22.0874117,30.2684444 L22.0874117,30.498793 C22.0874117,32.5498867 22.1893759,34.5952835 21.5352254,36.5688512 C21.0996037,37.8828292 20.3825035,39.1098692 19.3980464,40.0612339 C18.4461414,40.9808946 17.1435848,41.5852502 15.8774098,41.8562194 C14.7572399,42.0962279 13.5789073,42.081119 12.4766888,41.7516956 C9.99891118,41.0108647 7.95053207,38.8537611 7.72410455,36.1388671 C7.66977153,35.8082054 7.62692742,35.474819 7.59341806,35.1431665 C7.49312934,34.1479613 7.47876819,33.1661312 7.47876819,32.3425729 C7.47876819,31.696606 7.55177072,30.7918064 7.69729707,29.629165 C7.88399206,28.1393294 8.23320743,26.0528166 8.86414075,24.6937596 C9.35098383,23.6457971 10.1063805,22.7031015 11.1202779,22.1666121 C11.5970682,21.9142194 12.1504512,21.7834408 12.6741546,21.8993582 C13.384553,22.0563915 13.9353032,22.6325108 14.3721216,23.2331511 C15.0545157,24.1713883 16.0229361,25.9381376 17.4133351,25.5272254 C18.3707453,25.2795387 18.8494504,22.8026716 18.1625086,20.983165 C17.5808819,19.125267 15.9267164,17.7810712 14.0556975,17.5849034 C11.482897,17.3154202 8.70712547,18.8706451 6.86075991,20.6230285 C3.22714886,24.0718183 1.96408546,30.1725896 2.55121726,35.0995737 C2.78650082,37.0743798 3.33102787,39.0338294 4.35689289,40.7304833 C5.46078685,42.5556867 7.0287854,43.7646455 9.01206062,44.4145755 C11.2708306,45.154911 13.7895375,45.1977608 16.0854072,44.5163747 C18.6153636,43.7656363 20.5306627,42.1801937 22.0299671,39.976525 C22.1178095,39.8472325 22.2046944,39.717197 22.2913401,39.5874092 C22.3667361,39.9009806 22.4543391,40.2175242 22.5555853,40.5367923 C22.9507563,41.7858764 23.6896377,42.7979243 24.7717505,43.5731837 C26.5295556,44.762823 28.7564918,45.0382506 30.6806469,44.0841614 C31.9954105,43.43225 32.98633,42.2995787 33.9884991,41.203565 C34.8662049,40.243779 35.6412285,38.6689869 35.9425734,38.2276091 C36.1967658,39.2067147 36.5093602,40.0926901 36.8832289,40.8810769 C37.4449893,42.0655147 38.1422233,42.9913676 38.9746914,43.659131 C39.8069203,44.3266467 40.7851541,44.6605284 41.9091537,44.6605284 C43.0743219,44.6605284 44.0939638,44.165155 44.9680793,43.1746558 C45.8421948,42.183909 46.5808368,41.0316704 47.1844839,39.7181878 C47.3841039,39.2832499 47.5652938,38.8450921 47.7376276,38.4054482 C48.0557272,39.531432 48.518635,40.5301048 49.1301808,41.397999 C49.8585306,42.4318434 50.7848249,43.2502002 51.9083458,43.8530697 C53.032106,44.4561868 54.4055109,44.7573739 56.0287999,44.7573739 C57.7353836,44.7573739 59.2023754,44.3697442 60.430254,43.5944848 C61.6578932,42.8192254 62.6672429,41.8609255 63.4583031,40.7198328 C64.2488845,39.5782448 64.831708,38.3400589 65.2060554,37.0047799 C65.5808815,35.6697485 65.7680552,34.4637619 65.7680552,33.3868201 L65.7680552,32.9347918 C65.7680552,32.2026299 65.4559394,31.8363013 64.831708,31.8363013 L64.831708,31.8363013 Z M52.7824613,30.6734122 C52.7824613,30.3719774 52.865756,29.7369087 53.032106,28.7677106 C53.198456,27.7987602 53.4586323,26.7864646 53.8126347,25.7313192 C54.1661584,24.6759262 54.6137477,23.739175 55.1546844,22.9208181 C55.6958605,22.1024613 56.3409157,21.6932828 57.0900891,21.6932828 C57.5896179,21.6932828 57.9330888,21.8872215 58.1202625,22.2748512 C58.3074362,22.6624809 58.4012624,23.0285619 58.4012624,23.3730941 L58.4012624,23.7607238 C58.4012624,24.3635932 58.3179677,25.1388526 58.1516177,26.086502 C57.9852677,27.0341513 57.7250915,27.9600043 57.371089,28.8645561 C57.017326,29.769108 56.5491524,30.5441197 55.9663289,31.1903343 C55.3835055,31.8363013 54.6759793,32.1595324 53.8437505,32.1595324 L53.5316348,32.1595324 C53.1570481,32.1595324 52.9385192,32.0411382 52.8760482,31.8043497 C52.8135771,31.5670658 52.7824613,31.2549806 52.7824613,30.8673509 L52.7824613,30.6734122 Z M22.6530018,15.2851323 C24.2348828,16.6929835 27.3464659,16.6929835 28.4012926,14.239399 C28.4872201,14.0679998 28.560462,13.8886746 28.6203002,13.7031572 C28.7397371,13.3316272 28.8043623,12.9345854 28.8043623,12.5216916 C28.8043623,12.3151209 28.7883257,12.1125132 28.7569705,11.9153546 C28.5058896,10.335361 27.380454,8.87772475 25.7868447,8.62483662 C23.8160158,8.31200831 21.9835327,10.030211 21.6230677,11.9641488 C21.5720856,12.238338 21.5500652,12.518224 21.5589213,12.7976146 C21.5895584,13.7395672 21.9548104,14.6728507 22.6530018,15.2851323 Z" id="Fill-9" fill-opacity="0.300000012" fill="#000000"></path>
                        <path d="M62.831708,28.8363013 C62.5401766,28.8363013 62.3321792,28.944045 62.2074765,29.1595324 C62.0825345,29.3747722 61.9575925,29.7837029 61.8326505,30.3868201 C61.6663004,31.2916196 61.4477716,32.2281231 61.1773032,33.1973212 C60.9065954,34.1662716 60.5217165,35.0383765 60.0221878,35.8136359 C59.5228984,36.5888953 58.887896,37.2244594 58.1181382,37.7198328 C57.3481411,38.2149585 56.3596151,38.4626453 55.1525602,38.4626453 C54.278684,38.4626453 53.5398027,38.2578083 52.9361556,37.8488776 C51.7140214,37.0201179 50.8226725,35.7333854 50.4818345,34.2594018 C50.280539,33.3897738 50.3454036,32.5013215 50.3454036,31.6143554 C50.3454036,31.7443909 51.7180904,31.8622898 51.8456653,31.8667482 C53.0381197,31.9083595 54.1968254,31.5484707 55.1525602,30.8066491 C56.068323,30.0960359 56.8383202,29.2132804 57.4625516,28.1581351 C58.0870224,27.102742 58.5654882,25.9614016 58.8984276,24.734114 C59.3273473,23.1538728 59.5497058,21.4213042 59.2622434,19.7935072 C58.5863118,15.9617938 53.9768604,13.2592841 50.5036156,14.988385 C48.8606997,15.8064942 47.9205229,17.4984421 47.2151509,19.1633922 C46.3829221,21.1285385 45.9867936,23.250966 45.600718,25.347634 C45.4003799,26.4357217 45.2615554,27.4680799 45.1816117,28.4471855 C45.1502565,28.577964 45.1198587,28.717907 45.0906577,28.8685005 C44.8826603,29.9454424 44.6330156,31.0005877 44.3414842,32.0341844 C44.0501922,33.067781 43.7172528,33.9941293 43.342666,34.8122385 C42.9680793,35.6305954 42.5520846,36.2765624 42.0939638,36.750387 C41.6360823,37.2244594 41.1365536,37.4612479 40.5958562,37.4612479 C40.2210301,37.4612479 39.8986222,37.2673092 39.6281538,36.8796795 C39.3574461,36.4920498 39.1389172,35.9860258 38.9723278,35.36136 C38.8059778,34.7369418 38.6812751,34.0369791 38.5979804,33.2617197 C38.5146858,32.4864603 38.4730384,31.6896522 38.4730384,30.8712953 C38.4730384,28.717907 38.4936227,26.6613643 38.5355094,24.701667 C38.5771568,22.7419698 38.6290963,21.0084105 38.6915673,19.5009892 C38.7296243,18.5575505 38.7408739,17.6131211 38.7908986,16.6704255 C38.8157913,16.1993253 38.850258,15.7284729 38.9024369,15.2598496 C39.0659147,14.622304 39.551561,14.2361605 40.2167217,13.9916937 C41.5604469,13.4980541 43.5834547,13.8373849 45.2325938,13.8373849 C46.2498421,13.8373849 46.3719119,13.0440443 46.3496521,12.475108 C46.327153,11.9064193 45.5202955,11.5029376 45.2510239,11.3842957 C44.6768171,11.1311599 44.0442083,11.045708 43.425482,11.0135087 C42.7074244,10.9758603 41.9891274,11.0187101 41.2708304,11.0296083 C40.8438254,11.0360482 40.1927865,11.0073165 39.7720047,10.9179016 C39.4783191,10.8554846 39.385929,10.7517038 39.2590722,10.4705794 C39.1463371,10.2204158 39.1872664,9.93953911 39.186309,9.67302821 C39.1855909,9.40825112 39.1829581,9.15090462 39.2044998,8.88563216 C39.3976573,6.523444 40.0515685,2.50051646 39.8720541,1.80402143 C39.6925396,1.10727872 38.5776355,0.780827632 37.4483701,0.471962305 C36.3193442,0.163096978 35.2570976,-0.123228859 34.789642,0.0548578855 C34.3221865,0.232696943 34.282454,1.05798906 34.2424821,1.7562179 C34.2025102,2.45419905 34.1565545,2.79130066 34.1216091,3.77238772 C34.0900145,4.6578677 34.0658399,5.54334769 34.0442982,6.42907537 C34.0165333,7.57710327 34.0220384,8.73355252 33.8844107,9.87489288 C33.8219397,10.3915674 33.7072898,10.6499046 33.5409398,10.6504 C33.2721469,10.6895345 32.9954553,10.6947359 32.7178064,10.6825992 C31.2106034,10.6382633 29.5351355,10.3905766 28.8170779,11.8766969 C28.5777253,12.619757 29.0564304,13.1151304 29.5351355,13.3628171 C31.6893085,13.8581905 34.0167726,13.2451659 33.6835939,17.1440024 C33.6675573,17.4853147 33.6548716,17.8283608 33.6438614,18.1719023 C33.6108307,19.2017836 33.5928793,20.2333988 33.5569764,21.2177058 C33.4954628,22.9059384 33.4444807,24.5946664 33.4047482,26.283642 C33.3674092,27.8651217 33.2766946,29.4545273 33.0268105,31.0206504 C32.9760678,31.3381847 32.908331,31.6527469 32.8185738,31.9606214 C32.33939,33.6025366 31.2352567,35.2370212 30.0593176,36.4259174 C29.3936782,37.0986345 28.6476163,37.8590327 27.7536345,38.1862269 C26.4015319,38.6808572 25.3644173,37.8067708 24.9936602,36.5022049 C24.5240505,34.8488962 24.5898725,33.1272258 24.5824526,31.4246274 C24.5781442,30.4314037 24.5290769,29.4193558 24.5822132,28.4276182 C24.6238606,27.6521111 24.6657472,27.0170424 24.7071552,26.521669 C24.7488026,26.0265432 24.7904499,25.6064666 24.8320973,25.2619344 C24.8737446,24.9174021 24.9151526,24.6050692 24.9567999,24.3249355 C24.9984473,24.0452972 25.0400946,23.7329643 25.081742,23.3881844 C25.157138,22.9980778 25.214822,22.4586162 25.3220519,22.0578591 C25.4295212,21.657102 25.7222494,21.4904088 25.808895,21.0837073 C26.1573923,19.4499657 23.8363907,18.9885254 22.7526023,18.848087 C22.2559458,18.7836885 21.7530661,18.7688273 21.2537767,18.8047418 C20.7894327,18.8381795 20.2592668,18.8738464 19.8375276,19.0923061 C19.3928106,19.3224071 19.6618429,19.9210658 19.8143104,20.3022557 C20.2513682,21.3955448 20.0606042,22.2770618 20.0874117,23.4285573 C20.1173308,24.7068684 20.0874117,25.9898856 20.0874117,27.2684444 L20.0874117,27.498793 C20.0874117,29.5498867 20.1893759,31.5952835 19.5352254,33.5688512 C19.0996037,34.8828292 18.3825035,36.1098692 17.3980464,37.0612339 C16.4461414,37.9808946 15.1435848,38.5852502 13.8774098,38.8562194 C12.7572399,39.0962279 11.5789073,39.081119 10.4766888,38.7516956 C7.99891118,38.0108647 5.95053207,35.8537611 5.72410455,33.1388671 C5.66977153,32.8082054 5.62692742,32.474819 5.59341806,32.1431665 C5.49312934,31.1479613 5.47876819,30.1661312 5.47876819,29.3425729 C5.47876819,28.696606 5.55177072,27.7918064 5.69729707,26.629165 C5.88399206,25.1393294 6.23320743,23.0528166 6.86414075,21.6937596 C7.35098383,20.6457971 8.10638048,19.7031015 9.12027788,19.1666121 C9.59706816,18.9142194 10.1504512,18.7834408 10.6741546,18.8993582 C11.384553,19.0563915 11.9353032,19.6325108 12.3721216,20.2331511 C13.0545157,21.1713883 14.0229361,22.9381376 15.4133351,22.5272254 C16.3707453,22.2795387 16.8494504,19.8026716 16.1625086,17.983165 C15.5808819,16.125267 13.9267164,14.7810712 12.0556975,14.5849034 C9.48289699,14.3154202 6.70712547,15.8706451 4.86075991,17.6230285 C1.22714886,21.0718183 -0.0359145437,27.1725896 0.55121726,32.0995737 C0.786500816,34.0743798 1.33102787,36.0338294 2.35689289,37.7304833 C3.46078685,39.5556867 5.0287854,40.7646455 7.01206062,41.4145755 C9.27083063,42.154911 11.7895375,42.1977608 14.0854072,41.5163747 C16.6153636,40.7656363 18.5306627,39.1801937 20.0299671,36.976525 C20.1178095,36.8472325 20.2046944,36.717197 20.2913401,36.5874092 C20.3667361,36.9009806 20.4543391,37.2175242 20.5555853,37.5367923 C20.9507563,38.7858764 21.6896377,39.7979243 22.7717505,40.5731837 C24.5295556,41.762823 26.7564918,42.0382506 28.6806469,41.0841614 C29.9954105,40.43225 30.98633,39.2995787 31.9884991,38.203565 C32.8662049,37.243779 33.6412285,35.6689869 33.9425734,35.2276091 C34.1967658,36.2067147 34.5093602,37.0926901 34.8832289,37.8810769 C35.4449893,39.0655147 36.1422233,39.9913676 36.9746914,40.659131 C37.8069203,41.3266467 38.7851541,41.6605284 39.9091537,41.6605284 C41.0743219,41.6605284 42.0939638,41.165155 42.9680793,40.1746558 C43.8421948,39.183909 44.5808368,38.0316704 45.1844839,36.7181878 C45.3841039,36.2832499 45.5652938,35.8450921 45.7376276,35.4054482 C46.0557272,36.531432 46.518635,37.5301048 47.1301808,38.397999 C47.8585306,39.4318434 48.7848249,40.2502002 49.9083458,40.8530697 C51.032106,41.4561868 52.4055109,41.7573739 54.0287999,41.7573739 C55.7353836,41.7573739 57.2023754,41.3697442 58.430254,40.5944848 C59.6578932,39.8192254 60.6672429,38.8609255 61.4583031,37.7198328 C62.2488845,36.5782448 62.831708,35.3400589 63.2060554,34.0047799 C63.5808815,32.6697485 63.7680552,31.4637619 63.7680552,30.3868201 L63.7680552,29.9347918 C63.7680552,29.2026299 63.4559394,28.8363013 62.831708,28.8363013 L62.831708,28.8363013 Z M50.7824613,27.6734122 C50.7824613,27.3719774 50.865756,26.7369087 51.032106,25.7677106 C51.198456,24.7987602 51.4586323,23.7864646 51.8126347,22.7313192 C52.1661584,21.6759262 52.6137477,20.739175 53.1546844,19.9208181 C53.6958605,19.1024613 54.3409157,18.6932828 55.0900891,18.6932828 C55.5896179,18.6932828 55.9330888,18.8872215 56.1202625,19.2748512 C56.3074362,19.6624809 56.4012624,20.0285619 56.4012624,20.3730941 L56.4012624,20.7607238 C56.4012624,21.3635932 56.3179677,22.1388526 56.1516177,23.086502 C55.9852677,24.0341513 55.7250915,24.9600043 55.371089,25.8645561 C55.017326,26.769108 54.5491524,27.5441197 53.9663289,28.1903343 C53.3835055,28.8363013 52.6759793,29.1595324 51.8437505,29.1595324 L51.5316348,29.1595324 C51.1570481,29.1595324 50.9385192,29.0411382 50.8760482,28.8043497 C50.8135771,28.5670658 50.7824613,28.2549806 50.7824613,27.8673509 L50.7824613,27.6734122 Z M20.6530018,12.2851323 C22.2348828,13.6929835 25.3464659,13.6929835 26.4012926,11.239399 C26.4872201,11.0679998 26.560462,10.8886746 26.6203002,10.7031572 C26.7397371,10.3316272 26.8043623,9.93458537 26.8043623,9.52169163 C26.8043623,9.31512091 26.7883257,9.11251318 26.7569705,8.91535456 C26.5058896,7.33536104 25.380454,5.87772475 23.7868447,5.62483662 C21.8160158,5.31200831 19.9835327,7.03021101 19.6230677,8.96414884 C19.5720856,9.23833803 19.5500652,9.51822401 19.5589213,9.79761462 C19.5895584,10.7395672 19.9548104,11.6728507 20.6530018,12.2851323 Z" id="Fill-8" fill="#FFFFFF"></path>
                    </g>
                </g>
            </g>
        </g>
    </g>
</svg>