<svg xmlns="http://www.w3.org/2000/svg" xmlns:xlink="http://www.w3.org/1999/xlink" xmlns:sketch="http://www.bohemiancoding.com/sketch/ns" width="132px" height="56px" viewBox="0 0 132 56" version="1.1">
    <!-- Generator: Sketch 3.2.2 (9983) - http://www.bohemiancoding.com/sketch -->
    <title>Icon + Fill 9 + Fill 8</title>
    <desc>Created with Sketch.</desc>
    <defs>
        <path id="path-1" d="M19.5239333 0 L36.4760667 0 C42.098 0 44.9 0 47.9 1 C51.2386 2.2 53.8 4.8 55 8.1 C56 11.1 56 13.9 56 19.5 L56 36.5 C56 42.1 56 44.9 55 47.9 C53.8407333 51.2 51.2 53.8 47.9 55 C44.9082667 56 42.1 56 36.5 56 L19.5239333 56 C13.902 56 11.1 56 8.1 55 C4.7614 53.8 2.2 51.2 1 47.9 C0 44.9 0 42.1 0 36.5 L0 19.5 C0 13.9 0 11.1 1 8.1 C2.15926667 4.8 4.8 2.2 8.1 1 C11.0912667 0 13.9 0 19.5 0 L19.5239333 0"/>
    </defs>
    <g id="Webcite" stroke="none" stroke-width="1" fill="none" fill-rule="evenodd" sketch:type="MSPage">
        <g id="Desktop-HD" sketch:type="MSArtboardGroup" transform="translate(-300.000000, -30.000000)">
            <g id="Header" sketch:type="MSLayerGroup">
                <g id="Icon-+-Fill-9-+-Fill-8" transform="translate(300.000000, 30.000000)">
                    <g id="Icon">
                        <g id="Icon-Shape-2">
                            <use fill="none" sketch:type="MSShapeGroup" xlink:href="#path-1"/>
                            <use fill="#FF6465" fill-rule="evenodd" xlink:href="#path-1"/>
                            <use fill="none" xlink:href="#path-1"/>
                        </g>
                        <path d="M29.2219883 30.1 C27.344399 35.9 21.9 39.8 14.2 38.9 C16.5285799 37.6 17.8 36.9 18.9 34.2 C14.3288134 33.1 11.3 28.8 12.1 24.2 C12.6640567 21.2 14.7 18.8 17.5 17.7 C18.9955984 17.1 20.7 16.8 22.5 17.1 C25.411924 17.6 27.7 19.4 29 21.7 C29.9641589 19.9 31.6 18.5 33.5 17.7 C34.9955984 17.1 36.7 16.8 38.5 17.1 C42.4943425 17.8 45.4 20.9 45.9 24.5 C46.0389732 25.4 46 26.3 45.9 27.2 C45.844102 27.3 45.8 27.5 45.8 27.6 C45.7550181 27.8 45.7 28 45.7 28.2 C44.4729176 35.1 38.7 39.9 30.2 38.9 C32.5285799 37.6 33.8 36.9 34.9 34.2 C32.4353757 33.6 30.4 32.1 29.2 30.1 Z" id="Imported-Layers-3" fill-opacity="0.1" fill="#000000" sketch:type="MSShapeGroup"/>
                        <path d="M27.2219883 29.1 C25.344399 34.9 19.9 38.8 12.2 37.9 C14.5285799 36.6 15.8 35.9 16.9 33.2 C12.3288134 32.1 9.3 27.8 10.1 23.2 C10.6640567 20.2 12.7 17.8 15.5 16.7 C16.9955984 16.1 18.7 15.8 20.5 16.1 C23.411924 16.6 25.7 18.4 27 20.7 C27.9641589 18.9 29.6 17.5 31.5 16.7 C32.9955984 16.1 34.7 15.8 36.5 16.1 C40.4943425 16.8 43.4 19.9 43.9 23.5 C44.0389732 24.4 44 25.3 43.9 26.2 C43.844102 26.3 43.8 26.5 43.8 26.6 C43.7550181 26.8 43.7 27 43.7 27.2 C42.4729176 34.1 36.7 38.9 28.2 37.9 C30.5285799 36.6 31.8 35.9 32.9 33.2 C30.4353757 32.6 28.4 31.1 27.2 29.1 Z" id="Imported-Layers-6" fill="#FFFFFF" sketch:type="MSShapeGroup"/>
                    </g>
                    <g id="Fill-9-+-Fill-8" sketch:type="MSShapeGroup">
                        <path d="M130.8 35.8 C130.5 35.8 130.3 35.9 130.2 36.2 C130.1 36.4 130 36.8 129.8 37.4 C129.7 38.3 129.4 39.2 129.2 40.2 C128.9 41.2 128.5 42 128 42.8 C127.5 43.6 126.9 44.2 126.1 44.7 C125.3 45.2 124.4 45.5 123.2 45.5 C122.3 45.5 121.5 45.3 120.9 44.8 C119.7 44 118.8 42.7 118.5 41.3 C118.3 40.4 118.3 39.5 118.3 38.6 C118.3 38.7 119.7 38.9 119.8 38.9 C121 38.9 122.2 38.5 123.2 37.8 C124.1 37.1 124.8 36.2 125.5 35.2 C126.1 34.1 126.6 33 126.9 31.7 C127.3 30.2 127.5 28.4 127.3 26.8 C126.6 23 122 20.3 118.5 22 C116.9 22.8 115.9 24.5 115.2 26.2 C114.4 28.1 114 30.3 113.6 32.3 C113.4 33.4 113.3 34.5 113.2 35.4 C113.2 35.6 113.1 35.7 113.1 35.9 C112.9 36.9 112.6 38 112.3 39 C112.1 40.1 111.7 41 111.3 41.8 C111 42.6 110.6 43.3 110.1 43.8 C109.6 44.2 109.1 44.5 108.6 44.5 C108.2 44.5 107.9 44.3 107.6 43.9 C107.4 43.5 107.1 43 107 42.4 C106.8 41.7 106.7 41 106.6 40.3 C106.5 39.5 106.5 38.7 106.5 37.9 C106.5 35.7 106.5 33.7 106.5 31.7 C106.6 29.7 106.6 28 106.7 26.5 C106.7 25.6 106.7 24.6 106.8 23.7 C106.8 23.2 106.9 22.7 106.9 22.3 C107.1 21.6 107.6 21.2 108.2 21 C109.6 20.5 111.6 20.8 113.2 20.8 C114.2 20.8 114.4 20 114.3 19.5 C114.3 18.9 113.5 18.5 113.3 18.4 C112.7 18.1 112 18 111.4 18 C110.7 18 110 18 109.3 18 C108.8 18 108.2 18 107.8 17.9 C107.5 17.9 107.4 17.8 107.3 17.5 C107.1 17.2 107.2 16.9 107.2 16.7 C107.2 16.4 107.2 16.2 107.2 15.9 C107.4 13.5 108.1 9.5 107.9 8.8 C107.7 8.1 106.6 7.8 105.4 7.5 C104.3 7.2 103.3 6.9 102.8 7.1 C102.3 7.2 102.3 8.1 102.2 8.8 C102.2 9.5 102.2 9.8 102.1 10.8 C102.1 11.7 102.1 12.5 102 13.4 C102 14.6 102 15.7 101.9 16.9 C101.8 17.4 101.7 17.6 101.5 17.7 C101.3 17.7 101 17.7 100.7 17.7 C99.2 17.6 97.5 17.4 96.8 18.9 C96.6 19.6 97.1 20.1 97.5 20.4 C99.7 20.9 102 20.2 101.7 24.1 C101.7 24.5 101.7 24.8 101.6 25.2 C101.6 26.2 101.6 27.2 101.6 28.2 C101.5 29.9 101.4 31.6 101.4 33.3 C101.4 34.9 101.3 36.5 101 38 C101 38.3 100.9 38.7 100.8 39 C100.3 40.6 99.2 42.2 98.1 43.4 C97.4 44.1 96.6 44.9 95.8 45.2 C94.4 45.7 93.4 44.8 93 43.5 C92.5 41.8 92.6 40.1 92.6 38.4 C92.6 37.4 92.5 36.4 92.6 35.4 C92.6 34.7 92.7 34 92.7 33.5 C92.7 33 92.8 32.6 92.8 32.3 C92.9 31.9 92.9 31.6 93 31.3 C93 31 93 30.7 93.1 30.4 C93.2 30 93.2 29.5 93.3 29.1 C93.4 28.7 93.7 28.5 93.8 28.1 C94.2 26.4 91.8 26 90.8 25.8 C90.3 25.8 89.8 25.8 89.3 25.8 C88.8 25.8 88.3 25.9 87.8 26.1 C87.4 26.3 87.7 26.9 87.8 27.3 C88.3 28.4 88.1 29.3 88.1 30.4 C88.1 31.7 88.1 33 88.1 34.3 L88.1 34.5 C88.1 36.5 88.2 38.6 87.5 40.6 C87.1 41.9 86.4 43.1 85.4 44.1 C84.4 45 83.1 45.6 81.9 45.9 C80.8 46.1 79.6 46.1 78.5 45.8 C76 45 74 42.9 73.7 40.1 C73.7 39.8 73.6 39.5 73.6 39.1 C73.5 38.1 73.5 37.2 73.5 36.3 C73.5 35.7 73.6 34.8 73.7 33.6 C73.9 32.1 74.2 30.1 74.9 28.7 C75.4 27.6 76.1 26.7 77.1 26.2 C77.6 25.9 78.2 25.8 78.7 25.9 C79.4 26.1 79.9 26.6 80.4 27.2 C81.1 28.2 82 29.9 83.4 29.5 C84.4 29.3 84.8 26.8 84.2 25 C83.6 23.1 81.9 21.8 80.1 21.6 C77.5 21.3 74.7 22.9 72.9 24.6 C69.2 28.1 68 34.2 68.6 39.1 C68.8 41.1 69.3 43 70.4 44.7 C71.5 46.6 73 47.8 75 48.4 C77.3 49.2 79.8 49.2 82.1 48.5 C84.6 47.8 86.5 46.2 88 44 C88.1 43.8 88.2 43.7 88.3 43.6 C88.4 43.9 88.5 44.2 88.6 44.5 C89 45.8 89.7 46.8 90.8 47.6 C92.5 48.8 94.8 49 96.7 48.1 C98 47.4 99 46.3 100 45.2 C100.9 44.2 101.6 42.7 101.9 42.2 C102.2 43.2 102.5 44.1 102.9 44.9 C103.4 46.1 104.1 47 105 47.7 C105.8 48.3 106.8 48.7 107.9 48.7 C109.1 48.7 110.1 48.2 111 47.2 C111.8 46.2 112.6 45 113.2 43.7 C113.4 43.3 113.6 42.8 113.7 42.4 C114.1 43.5 114.5 44.5 115.1 45.4 C115.9 46.4 116.8 47.3 117.9 47.9 C119 48.5 120.4 48.8 122 48.8 C123.7 48.8 125.2 48.4 126.4 47.6 C127.7 46.8 128.7 45.9 129.5 44.7 C130.2 43.6 130.8 42.3 131.2 41 C131.6 39.7 131.8 38.5 131.8 37.4 L131.8 36.9 C131.8 36.2 131.5 35.8 130.8 35.8 L130.8 35.8 ZM118.8 34.7 C118.8 34.4 118.9 33.7 119 32.8 C119.2 31.8 119.5 30.8 119.8 29.7 C120.2 28.7 120.6 27.7 121.2 26.9 C121.7 26.1 122.3 25.7 123.1 25.7 C123.6 25.7 123.9 25.9 124.1 26.3 C124.3 26.7 124.4 27 124.4 27.4 L124.4 27.8 C124.4 28.4 124.3 29.1 124.2 30.1 C124 31 123.7 32 123.4 32.9 C123 33.8 122.5 34.5 122 35.2 C121.4 35.8 120.7 36.2 119.8 36.2 L119.5 36.2 C119.2 36.2 118.9 36 118.9 35.8 C118.8 35.6 118.8 35.3 118.8 34.9 L118.8 34.7 ZM88.7 19.3 C90.2 20.7 93.3 20.7 94.4 18.2 C94.5 18.1 94.6 17.9 94.6 17.7 C94.7 17.3 94.8 16.9 94.8 16.5 C94.8 16.3 94.8 16.1 94.8 15.9 C94.5 14.3 93.4 12.9 91.8 12.6 C89.8 12.3 88 14 87.6 16 C87.6 16.2 87.6 16.5 87.6 16.8 C87.6 17.7 88 18.7 88.7 19.3 Z" id="Fill-9" fill-opacity="0.300000012" fill="#000000"/>
                        <path d="M128.8 32.8 C128.5 32.8 128.3 32.9 128.2 33.2 C128.1 33.4 128 33.8 127.8 34.4 C127.7 35.3 127.4 36.2 127.2 37.2 C126.9 38.2 126.5 39 126 39.8 C125.5 40.6 124.9 41.2 124.1 41.7 C123.3 42.2 122.4 42.5 121.2 42.5 C120.3 42.5 119.5 42.3 118.9 41.8 C117.7 41 116.8 39.7 116.5 38.3 C116.3 37.4 116.3 36.5 116.3 35.6 C116.3 35.7 117.7 35.9 117.8 35.9 C119 35.9 120.2 35.5 121.2 34.8 C122.1 34.1 122.8 33.2 123.5 32.2 C124.1 31.1 124.6 30 124.9 28.7 C125.3 27.2 125.5 25.4 125.3 23.8 C124.6 20 120 17.3 116.5 19 C114.9 19.8 113.9 21.5 113.2 23.2 C112.4 25.1 112 27.3 111.6 29.3 C111.4 30.4 111.3 31.5 111.2 32.4 C111.2 32.6 111.1 32.7 111.1 32.9 C110.9 33.9 110.6 35 110.3 36 C110.1 37.1 109.7 38 109.3 38.8 C109 39.6 108.6 40.3 108.1 40.8 C107.6 41.2 107.1 41.5 106.6 41.5 C106.2 41.5 105.9 41.3 105.6 40.9 C105.4 40.5 105.1 40 105 39.4 C104.8 38.7 104.7 38 104.6 37.3 C104.5 36.5 104.5 35.7 104.5 34.9 C104.5 32.7 104.5 30.7 104.5 28.7 C104.6 26.7 104.6 25 104.7 23.5 C104.7 22.6 104.7 21.6 104.8 20.7 C104.8 20.2 104.9 19.7 104.9 19.3 C105.1 18.6 105.6 18.2 106.2 18 C107.6 17.5 109.6 17.8 111.2 17.8 C112.2 17.8 112.4 17 112.3 16.5 C112.3 15.9 111.5 15.5 111.3 15.4 C110.7 15.1 110 15 109.4 15 C108.7 15 108 15 107.3 15 C106.8 15 106.2 15 105.8 14.9 C105.5 14.9 105.4 14.8 105.3 14.5 C105.1 14.2 105.2 13.9 105.2 13.7 C105.2 13.4 105.2 13.2 105.2 12.9 C105.4 10.5 106.1 6.5 105.9 5.8 C105.7 5.1 104.6 4.8 103.4 4.5 C102.3 4.2 101.3 3.9 100.8 4.1 C100.3 4.2 100.3 5.1 100.2 5.8 C100.2 6.5 100.2 6.8 100.1 7.8 C100.1 8.7 100.1 9.5 100 10.4 C100 11.6 100 12.7 99.9 13.9 C99.8 14.4 99.7 14.6 99.5 14.7 C99.3 14.7 99 14.7 98.7 14.7 C97.2 14.6 95.5 14.4 94.8 15.9 C94.6 16.6 95.1 17.1 95.5 17.4 C97.7 17.9 100 17.2 99.7 21.1 C99.7 21.5 99.7 21.8 99.6 22.2 C99.6 23.2 99.6 24.2 99.6 25.2 C99.5 26.9 99.4 28.6 99.4 30.3 C99.4 31.9 99.3 33.5 99 35 C99 35.3 98.9 35.7 98.8 36 C98.3 37.6 97.2 39.2 96.1 40.4 C95.4 41.1 94.6 41.9 93.8 42.2 C92.4 42.7 91.4 41.8 91 40.5 C90.5 38.8 90.6 37.1 90.6 35.4 C90.6 34.4 90.5 33.4 90.6 32.4 C90.6 31.7 90.7 31 90.7 30.5 C90.7 30 90.8 29.6 90.8 29.3 C90.9 28.9 90.9 28.6 91 28.3 C91 28 91 27.7 91.1 27.4 C91.2 27 91.2 26.5 91.3 26.1 C91.4 25.7 91.7 25.5 91.8 25.1 C92.2 23.4 89.8 23 88.8 22.8 C88.3 22.8 87.8 22.8 87.3 22.8 C86.8 22.8 86.3 22.9 85.8 23.1 C85.4 23.3 85.7 23.9 85.8 24.3 C86.3 25.4 86.1 26.3 86.1 27.4 C86.1 28.7 86.1 30 86.1 31.3 L86.1 31.5 C86.1 33.5 86.2 35.6 85.5 37.6 C85.1 38.9 84.4 40.1 83.4 41.1 C82.4 42 81.1 42.6 79.9 42.9 C78.8 43.1 77.6 43.1 76.5 42.8 C74 42 72 39.9 71.7 37.1 C71.7 36.8 71.6 36.5 71.6 36.1 C71.5 35.1 71.5 34.2 71.5 33.3 C71.5 32.7 71.6 31.8 71.7 30.6 C71.9 29.1 72.2 27.1 72.9 25.7 C73.4 24.6 74.1 23.7 75.1 23.2 C75.6 22.9 76.2 22.8 76.7 22.9 C77.4 23.1 77.9 23.6 78.4 24.2 C79.1 25.2 80 26.9 81.4 26.5 C82.4 26.3 82.8 23.8 82.2 22 C81.6 20.1 79.9 18.8 78.1 18.6 C75.5 18.3 72.7 19.9 70.9 21.6 C67.2 25.1 66 31.2 66.6 36.1 C66.8 38.1 67.3 40 68.4 41.7 C69.5 43.6 71 44.8 73 45.4 C75.3 46.2 77.8 46.2 80.1 45.5 C82.6 44.8 84.5 43.2 86 41 C86.1 40.8 86.2 40.7 86.3 40.6 C86.4 40.9 86.5 41.2 86.6 41.5 C87 42.8 87.7 43.8 88.8 44.6 C90.5 45.8 92.8 46 94.7 45.1 C96 44.4 97 43.3 98 42.2 C98.9 41.2 99.6 39.7 99.9 39.2 C100.2 40.2 100.5 41.1 100.9 41.9 C101.4 43.1 102.1 44 103 44.7 C103.8 45.3 104.8 45.7 105.9 45.7 C107.1 45.7 108.1 45.2 109 44.2 C109.8 43.2 110.6 42 111.2 40.7 C111.4 40.3 111.6 39.8 111.7 39.4 C112.1 40.5 112.5 41.5 113.1 42.4 C113.9 43.4 114.8 44.3 115.9 44.9 C117 45.5 118.4 45.8 120 45.8 C121.7 45.8 123.2 45.4 124.4 44.6 C125.7 43.8 126.7 42.9 127.5 41.7 C128.2 40.6 128.8 39.3 129.2 38 C129.6 36.7 129.8 35.5 129.8 34.4 L129.8 33.9 C129.8 33.2 129.5 32.8 128.8 32.8 L128.8 32.8 ZM116.8 31.7 C116.8 31.4 116.9 30.7 117 29.8 C117.2 28.8 117.5 27.8 117.8 26.7 C118.2 25.7 118.6 24.7 119.2 23.9 C119.7 23.1 120.3 22.7 121.1 22.7 C121.6 22.7 121.9 22.9 122.1 23.3 C122.3 23.7 122.4 24 122.4 24.4 L122.4 24.8 C122.4 25.4 122.3 26.1 122.2 27.1 C122 28 121.7 29 121.4 29.9 C121 30.8 120.5 31.5 120 32.2 C119.4 32.8 118.7 33.2 117.8 33.2 L117.5 33.2 C117.2 33.2 116.9 33 116.9 32.8 C116.8 32.6 116.8 32.3 116.8 31.9 L116.8 31.7 ZM86.7 16.3 C88.2 17.7 91.3 17.7 92.4 15.2 C92.5 15.1 92.6 14.9 92.6 14.7 C92.7 14.3 92.8 13.9 92.8 13.5 C92.8 13.3 92.8 13.1 92.8 12.9 C92.5 11.3 91.4 9.9 89.8 9.6 C87.8 9.3 86 11 85.6 13 C85.6 13.2 85.6 13.5 85.6 13.8 C85.6 14.7 86 15.7 86.7 16.3 Z" id="Fill-8" fill="#FFFFFF"/>
                    </g>
                </g>
            </g>
        </g>
    </g>
</svg>
